<svg xmlns="http://www.w3.org/2000/svg" width="1288" height="272" viewBox="0 0 1288 272" fill="none">
  <g fill-rule="evenodd" clip-rule="evenodd">
    <path d="M967,140L966,141L968,142L969,141ZM911,118L910,119L912,120L913,119ZM794,115L792,117L796,119L797,118ZM1217,85L1215,87L1217,89ZM68,85L68,90L70,87ZM795,71L792,72L794,74L796,72ZM1218,3L1219,4L1221,2L1281,1L1221,0ZM379,1L439,2L441,4L442,3L439,0ZM4,1L64,2L66,4L67,3L64,0Z" fill="#000000" opacity="0.18" transform="translate(0,6)"/>
    <path d="M508,5L449,5L448,53L507,54ZM807,4L803,0L763,0L760,3L743,7L728,16L720,25L712,40L709,53L709,69L706,72L683,73L683,98L680,101L661,83L634,71L618,68L582,69L559,76L541,87L526,102L513,123L510,120L509,72L446,72L444,74L441,71L440,3L379,3L378,129L375,132L358,101L344,87L328,77L303,69L267,68L239,75L217,88L205,100L191,122L187,118L185,111L175,94L162,81L143,71L129,68L101,69L82,77L69,89L66,86L66,4L4,3L3,251L64,252L65,236L68,233L81,246L95,253L108,256L138,254L163,242L177,227L191,201L201,218L212,231L228,243L240,249L270,256L302,255L327,248L349,235L363,220L375,198L378,201L379,252L441,252L444,249L447,252L509,252L510,203L513,200L527,223L539,235L556,246L585,255L625,255L652,247L669,237L680,227L689,215L696,197L638,196L628,206L620,210L600,212L582,205L573,195L568,183L571,180L700,180L700,150L695,128L691,120L694,117L706,117L709,120L709,251L771,252L772,120L775,117L793,116L793,73L775,72L772,69L772,62L775,55L782,50L807,47ZM246,183L249,180L375,180L378,183L378,194L375,197L315,196L308,204L300,209L288,212L278,212L261,206L250,194ZM91,117L106,117L117,122L125,131L130,147L130,175L126,189L117,201L103,207L88,206L80,202L70,189L66,173L66,150L70,134L81,121ZM568,140L572,129L583,117L597,112L610,112L624,117L632,124L639,137L639,140L636,143L571,143ZM246,138L253,124L262,116L274,112L288,112L303,118L313,129L317,140L314,143L249,143Z" fill="#B8B9C3"/>
    <path d="M1282,4L1219,4L1219,86L1216,89L1203,77L1184,69L1157,68L1143,71L1122,82L1111,93L1093,127L1080,104L1065,88L1041,74L1015,68L988,68L962,74L937,88L921,105L918,102L917,72L886,72L883,69L882,17L821,17L820,69L817,72L795,73L795,116L817,117L820,120L820,198L824,223L830,234L845,246L865,252L893,254L918,251L918,221L921,218L938,236L956,247L984,255L1013,256L1035,252L1062,240L1079,225L1091,204L1095,201L1098,204L1107,225L1114,234L1127,245L1144,253L1159,256L1176,256L1190,253L1204,246L1217,234L1220,237L1221,252L1281,252ZM966,183L969,180L1090,180L1093,183L1094,193L1091,196L1035,196L1027,205L1018,210L996,212L986,209L978,204L971,196ZM1180,117L1195,117L1206,122L1212,128L1219,147L1220,166L1216,188L1213,194L1204,203L1193,207L1181,207L1168,202L1161,194L1155,176L1155,151L1159,135L1169,122ZM886,117L910,117L913,120L907,140L905,158L907,183L913,202L910,206L892,205L884,196L883,120ZM966,138L972,125L982,116L993,112L1009,112L1022,117L1032,127L1037,140L1034,143L969,143Z" fill="#29363B"/>
  </g>
</svg>
